# xmcd CD database file
#
# Track frame offsets:
#	150
#	15790
#	34785
#	46888
#	55860
#	68878
#	82728
#	101188
#	115270
#	126383
#	140628
#
# Disc length: 2052 seconds
#
# Revision: 0
# Processed by: cddbd v1.4PL0 Copyright (c) Steve Scherf et al.
# Submitted via: CDex 1.50beta10
#
DISCID=8e08020b
DTITLE=Nara Leão - Debaixo dos Caracóis Dos Seus Cabelos
DYEAR=1978
DGENRE=Jazz
TTITLE0=As Curvas da Estrada de Santos
TTITLE1=Além do Horizonte
TTITLE2=Como É Grande o Meu Amor Por Você
TTITLE3=Dia de Chuva
TTITLE4=Olha
TTITLE5=Cavalgada
TTITLE6=Proposta
TTITLE7=Debaixo dos Caracóis Dos Seus Cabelos
TTITLE8=A Cigana
TTITLE9=O Divã
TTITLE10=Se Você Pensa
EXTD=YEAR: 1978
EXTT0=
EXTT1=
EXTT2=
EXTT3=
EXTT4=
EXTT5=
EXTT6=
EXTT7=
EXTT8=
EXTT9=
EXTT10=
PLAYORDER=
